<?xml version="1.0" standalone="no"?><!DOCTYPE svg PUBLIC "-//W3C//DTD SVG 1.1//EN" "http://www.w3.org/Graphics/SVG/1.1/DTD/svg11.dtd"><svg t="1592224741741" class="icon" viewBox="0 0 1309 1024" version="1.1" xmlns="http://www.w3.org/2000/svg" p-id="12374" xmlns:xlink="http://www.w3.org/1999/xlink" width="255.6640625" height="200"><defs><style type="text/css"></style></defs><path d="M702.388148 113.777778c229.072593 0 414.151111 180.527407 414.151111 402.014815S929.943704 917.807407 702.388148 917.807407C473.315556 917.807407 288.237037 737.28 288.237037 515.792593S473.315556 113.777778 702.388148 113.777778m0-45.511111C447.525926 68.266667 241.208889 268.515556 241.208889 515.792593s206.317037 447.525926 459.662222 447.525926S1162.05037 761.552593 1162.05037 515.792593 955.733333 68.266667 702.388148 68.266667z" p-id="12375" fill="#3c877b"></path><path d="M922.358519 637.155556c31.857778 0 59.164444 25.78963 59.164444 56.13037s-25.78963 56.13037-59.164444 56.13037-59.164444-25.78963-59.164445-56.13037 27.306667-56.13037 59.164445-56.13037m0-30.340741c-48.545185 0-89.505185 39.442963-89.505186 86.471111s39.442963 86.471111 89.505186 86.471111c48.545185 0 89.505185-39.442963 89.505185-86.471111S972.420741 606.814815 922.358519 606.814815zM486.968889 804.02963c-188.112593-3.034074-306.441481-54.613333-333.748148-147.152593C119.845926 541.582222 251.828148 439.940741 257.896296 435.38963c6.068148-4.551111 16.687407-4.551111 21.238519 3.034074 4.551111 6.068148 4.551111 16.687407-3.034074 21.238518-1.517037 1.517037-119.845926 94.056296-92.53926 188.112593 22.755556 77.368889 133.499259 122.88 304.924445 125.914074 9.102222 0 15.17037 7.585185 15.17037 15.17037-1.517037 7.585185-9.102222 15.17037-16.687407 15.170371z" p-id="12376" fill="#3c877b"></path><path d="M676.598519 781.274074c-7.585185 0-13.653333-6.068148-15.170371-13.653333-1.517037-7.585185 4.551111-15.17037 13.653333-16.687408 4.551111 0 395.946667-54.613333 511.241482-273.066666 48.545185-91.022222-4.551111-141.084444-4.551111-141.084445-6.068148-6.068148-6.068148-15.17037-1.517037-21.238518 6.068148-6.068148 15.17037-6.068148 21.238518-1.517037 0 0 69.783704 66.74963 10.61926 177.493333-122.88 232.106667-517.30963 286.72-535.514074 288.237037 1.517037 1.517037 0 1.517037 0 1.517037zM585.576296 796.444444h-30.34074c-9.102222 0-15.17037-6.068148-15.170371-15.17037s6.068148-15.17037 15.170371-15.17037h30.34074c9.102222 0 15.17037 6.068148 15.170371 15.17037s-7.585185 15.17037-15.170371 15.17037zM380.776296 75.851852l-48.545185 4.551111-6.068148 48.545185-4.551111-48.545185L273.066667 75.851852l48.545185-6.068148 4.551111-48.545185 6.068148 48.545185zM183.561481 333.748148l-83.437037 9.102222L91.022222 424.77037l-9.102222-81.92L0 333.748148l81.92-9.102222 9.102222-83.437037 9.102222 83.437037zM514.275556 54.613333l-22.755556-19.721481-22.755556 16.687407L488.485926 30.340741 470.281481 6.068148l22.755556 19.721482L517.30963 9.102222 497.588148 30.340741zM926.90963 45.511111l-28.823704-9.102222-16.687407 27.306667 9.102222-30.340741-27.306667-15.170371 30.340741 9.102223L910.222222 0l-10.619259 30.340741zM490.002963 439.940741l-28.823704-39.442963-43.994074 21.238518 39.442963-30.34074-21.238518-43.994075 30.34074 39.442963 43.994074-19.721481-39.442963 28.823704zM1124.124444 970.903704l-48.545185 4.551111-6.068148 48.545185-4.551111-48.545185L1016.414815 970.903704l48.545185-6.068148 4.551111-48.545186 6.068148 48.545186zM1290.998519 523.377778l-13.653334-25.78963-28.823704 7.585185 25.78963-13.653333-9.102222-28.823704 15.17037 25.78963 28.823704-9.102222-25.78963 15.17037zM881.398519 242.725926h-4.551112l-74.334814-22.755556c-7.585185-3.034074-12.136296-10.619259-10.61926-19.721481 3.034074-7.585185 10.619259-12.136296 19.721482-10.619259l74.334815 22.755555c7.585185 3.034074 12.136296 10.619259 10.619259 19.721482-3.034074 6.068148-9.102222 10.619259-15.17037 10.619259zM380.776296 614.4l-13.653333-25.78963-28.823704 7.585186 25.78963-13.653334-9.102222-28.823703 15.17037 25.789629 28.823704-9.102222-25.78963 15.17037z" p-id="12377" fill="#3c877b"></path><path d="M1045.238519 550.684444l-40.96-12.136296-21.238519 36.408889 12.136296-39.442963-36.408889-22.755555 40.96 13.653333 21.238519-36.408889-13.653333 39.442963z" p-id="12378" fill="#1e3c3f"></path></svg>
